<svg xmlns="http://www.w3.org/2000/svg" viewBox="0 0 24 24" fill="currentColor"><path d="M12 .5C5.65.5.5 5.65.5 12a11.5 11.5 0 008.01 10.95c.59.11.79-.26.79-.57v-2.01c-3.26.71-3.95-1.57-3.95-1.57-.54-1.36-1.33-1.72-1.33-1.72-1.09-.74.08-.73.08-.73 1.2.09 1.84 1.24 1.84 1.24 1.07 1.84 2.81 1.3 3.5.99.11-.78.42-1.3.77-1.6-2.6-.3-5.34-1.3-5.34-5.8 0-1.28.46-2.33 1.22-3.15-.12-.3-.53-1.52.12-3.17 0 0 1-.32 3.3 1.2a11.37 11.37 0 016 0c2.3-1.52 3.3-1.2 3.3-1.2.65 1.66.24 2.87.12 3.17.76.82 1.22 1.87 1.22 3.15 0 4.52-2.75 5.5-5.37 5.8.43.37.82 1.1.82 2.22v3.29c0 .32.21.69.8.57A11.5 11.5 0 0023.5 12C23.5 5.65 18.35.5 12 .5z"/></svg>